<svg width="32" height="32" viewBox="0 0 32 32" fill="none" xmlns="http://www.w3.org/2000/svg">
<rect width="32" height="32" rx="16" fill="white"/>
<path d="M9.67683 12.3761V23.1174H22.4073V12.3761L16.4399 8L13.6551 10.7848V8H11.2681V10.7848L9.67683 12.3761Z" fill="#2B8BC8"/>
<path d="M9 13.1211L9.67683 12.3761M22.4073 12.3761V23.1174H9.67683V12.3761M22.4073 12.3761C22.8051 12.7739 22.8681 12.8914 23.2659 13.1211M22.4073 12.3761L16.4399 8L13.6551 10.7848V8H11.2681V10.7848L9.67683 12.3761" stroke="#2D8BC9"/>
<path d="M14.0529 12.8965C14.0529 12.8965 18.0839 12.0754 18.0318 14.6832C17.9853 17.0092 16.4041 14.6832 15.1381 18.2565" stroke="#FCFCFC"/>
<mask id="path-5-inside-1_1_2" fill="white">
<ellipse cx="15.3189" cy="20.2983" rx="0.72338" ry="1.02088"/>
</mask>
<ellipse cx="15.3189" cy="20.2983" rx="0.72338" ry="1.02088" fill="white"/>
<path d="M16.0423 20.2983H15.0423C15.0423 20.3976 15.0122 20.4453 15.0144 20.4421C15.017 20.4385 15.0376 20.4103 15.0879 20.3803C15.1417 20.3482 15.222 20.3192 15.3189 20.3192V21.3192V22.3192C15.929 22.3192 16.3839 21.9687 16.6463 21.5984C16.9104 21.2257 17.0423 20.7629 17.0423 20.2983H16.0423ZM15.3189 21.3192V20.3192C15.4158 20.3192 15.4961 20.3482 15.5498 20.3803C15.6001 20.4103 15.6208 20.4385 15.6233 20.4421C15.6256 20.4453 15.5955 20.3976 15.5955 20.2983H14.5955H13.5955C13.5955 20.7629 13.7274 21.2257 13.9914 21.5984C14.2538 21.9687 14.7087 22.3192 15.3189 22.3192V21.3192ZM14.5955 20.2983H15.5955C15.5955 20.1991 15.6256 20.1514 15.6233 20.1546C15.6208 20.1582 15.6001 20.1863 15.5498 20.2163C15.4961 20.2484 15.4158 20.2775 15.3189 20.2775V19.2775V18.2775C14.7087 18.2775 14.2538 18.628 13.9914 18.9983C13.7274 19.371 13.5955 19.8338 13.5955 20.2983H14.5955ZM15.3189 19.2775V20.2775C15.222 20.2775 15.1417 20.2484 15.0879 20.2163C15.0376 20.1863 15.017 20.1582 15.0144 20.1546C15.0122 20.1514 15.0423 20.1991 15.0423 20.2983H16.0423H17.0423C17.0423 19.8338 16.9104 19.371 16.6463 18.9983C16.3839 18.628 15.929 18.2775 15.3189 18.2775V19.2775Z" fill="white" mask="url(#path-5-inside-1_1_2)"/>
</svg>
